<svg width="336.9224609375px" height="100.431201171875px" xmlns="http://www.w3.org/2000/svg" viewBox="81.53876953125001 24.7843994140625 336.9224609375 100.431201171875" style="background: rgba(0, 0, 0, 0);" preserveAspectRatio="xMidYMid"><defs><filter id="editing-raise" x="-100%" y="-100%" width="300%" height="300%"><feFlood flood-color="#1a1a1d" result="flood-surface"></feFlood><feFlood flood-color="#ffffff" result="flood-extrude"></feFlood><feMorphology operator="erode" in="SourceAlpha" radius="1" result="erode"></feMorphology><feConvolveMatrix in="erode" result="shadow" order="11,8" divisor="1" kernelMatrix="0 0 0 1 1 1 1 1 0 0 0 0 0 1 0 0 0 0 0 1 0 0 0 0 1 0 0 0 0 0 1 0 0 0 0 1 0 0 0 0 0 1 0 0 0 0 1 0 0 0 0 0 1 0 0 0 0 0 1 0 0 0 1 0 0 0 0 0 0 1 1 0 1 1 0 0 0 0 0 0 0 0 1 0 0 0 0 0"></feConvolveMatrix><feOffset dx="0" dy="4" in="shadow" result="offset"></feOffset><feGaussianBlur in="offset" stdDeviation="0.2" result="blur"></feGaussianBlur><feComposite operator="in" in="flood-extrude" in2="blur" result="extrude"></feComposite><feMorphology operator="erode" in="SourceAlpha" radius="1" result="erode2"></feMorphology><feConvolveMatrix in="erode2" result="out" order="4,4" divisor="1" kernelMatrix="0 1 1 0 1 0 0 1 1 0 0 1 0 1 1 0 "></feConvolveMatrix><feComposite operator="in" in="flood-surface" in2="out" result="text"></feComposite><feMerge><feMergeNode in="extrude"></feMergeNode><feMergeNode in="text"></feMergeNode></feMerge></filter></defs><g filter="url(#editing-raise)"><g transform="translate(133.48500061035156, 97.58468818664551)"><path d="M5.75-44.81L12.16-44.81L12.16-6.41L35.19-6.41L35.19 0L5.75 0L5.75-44.81ZM42.88-44.81L49.28-44.81L49.28 0L42.88 0L42.88-44.81ZM60.78-44.81L67.19-44.81L67.19-25.47L88.56-44.81L97.59-44.81L73.34-22.84L98.56 0L89.53 0L67.19-20.16L67.19 0L60.78 0L60.78-44.81ZM104.38 0L104.38-44.81L137.03-44.81L137.03-38.41L110.78-38.41L110.78-25.59L133.19-25.59L133.19-19.19L110.78-19.19L110.78-6.41L137.03-6.41L137.03 0L104.38 0ZM182.03-33.91L182.03-28.81L182.03-28.81Q182.03-19.44 174.03-18.13L174.03-18.13L182.47 0L175.38 0L167.06-17.91L153.03-17.91L153.03 0L146.63 0L146.63-44.81L171.16-44.81L171.16-44.81Q182.03-44.81 182.03-33.91L182.03-33.91ZM153.03-38.41L153.03-24.31L170.81-24.31L170.81-24.31Q173.38-24.31 174.50-25.44L174.50-25.44L174.50-25.44Q175.63-26.56 175.63-29.13L175.63-29.13L175.63-33.59L175.63-33.59Q175.63-36.16 174.50-37.28L174.50-37.28L174.50-37.28Q173.38-38.41 170.81-38.41L170.81-38.41L153.03-38.41ZM220.88-19.19L199.13-19.19L199.13-19.19Q197.81-19.19 196.64-19.70L196.64-19.70L196.64-19.70Q195.47-20.22 194.59-21.08L194.59-21.08L194.59-21.08Q193.72-21.94 193.22-23.11L193.22-23.11L193.22-23.11Q192.72-24.28 192.72-25.59L192.72-25.59L192.72-38.41L192.72-38.41Q192.72-39.72 193.22-40.89L193.22-40.89L193.22-40.89Q193.72-42.06 194.59-42.92L194.59-42.92L194.59-42.92Q195.47-43.78 196.64-44.30L196.64-44.30L196.64-44.30Q197.81-44.81 199.13-44.81L199.13-44.81L220.88-44.81L220.88-44.81Q222.19-44.81 223.36-44.30L223.36-44.30L223.36-44.30Q224.53-43.78 225.41-42.92L225.41-42.92L225.41-42.92Q226.28-42.06 226.78-40.89L226.78-40.89L226.78-40.89Q227.28-39.72 227.28-38.41L227.28-38.41L227.28-32.63L220.88-32.63L220.88-38.41L199.13-38.41L199.13-25.59L220.88-25.59L220.88-25.59Q222.19-25.59 223.36-25.09L223.36-25.09L223.36-25.09Q224.53-24.59 225.41-23.72L225.41-23.72L225.41-23.72Q226.28-22.84 226.78-21.67L226.78-21.67L226.78-21.67Q227.28-20.50 227.28-19.19L227.28-19.19L227.28-6.41L227.28-6.41Q227.28-5.09 226.78-3.92L226.78-3.92L226.78-3.92Q226.28-2.75 225.41-1.88L225.41-1.88L225.41-1.88Q224.53-1 223.36-0.50L223.36-0.50L223.36-0.50Q222.19 0 220.88 0L220.88 0L198.50 0L198.50 0Q197.19 0 196.02-0.50L196.02-0.50L196.02-0.50Q194.84-1 193.97-1.88L193.97-1.88L193.97-1.88Q193.09-2.75 192.59-3.92L192.59-3.92L192.59-3.92Q192.09-5.09 192.09-6.41L192.09-6.41L192.09-12.16L198.50-12.16L198.50-6.41L220.88-6.41L220.88-19.19Z"></path></g></g><style>text {
  font-size: 64px;
  font-family: Arial Black;
  dominant-baseline: central;
  text-anchor: middle;
}</style></svg>